{
  "accessors": [
    {
      "bufferView": 2,
      "componentType": 5126,
      "count": 7350,
      "max": [
        3.4746570587158203,
        0.015235813334584236,
        1.5580816268920898
      ],
      "min": [
        -0.897348165512085,
        -0.019190898165106773,
        -0.04790082946419716
      ],
      "type": "VEC3"
    },
    {
      "bufferView": 2,
      "byteOffset": 88200,
      "componentType": 5126,
      "count": 7350,
      "max": [
        1.0,
        1.0,
        1.0
      ],
      "min": [
        -1.0,
        -1.0,
        -1.0
      ],
      "type": "VEC3"
    },
    {
      "bufferView": 1,
      "componentType": 5126,
      "count": 7350,
      "max": [
        1.0,
        0.9986391663551331
      ],
      "min": [
        0.0,
        0.0
      ],
      "type": "VEC2"
    },
    {
      "bufferView": 0,
      "componentType": 5125,
      "count": 15012,
      "type": "SCALAR"
    },
    {
      "bufferView": 2,
      "byteOffset": 176400,
      "componentType": 5126,
      "count": 517,
      "max": [
        0.3788367211818695,
        1.3969838619232178e-09,
        0.28864094614982605
      ],
      "min": [
        -0.3788367211818695,
        -0.03601102903485298,
        -0.288592129945755
      ],
      "type": "VEC3"
    },
    {
      "bufferView": 2,
      "byteOffset": 182604,
      "componentType": 5126,
      "count": 517,
      "max": [
        1.0,
        1.0,
        1.0
      ],
      "min": [
        -1.0,
        -0.9999546408653259,
        -1.0
      ],
      "type": "VEC3"
    },
    {
      "bufferView": 1,
      "byteOffset": 58800,
      "componentType": 5126,
      "count": 517,
      "max": [
        0.9220948219299316,
        0.7600269317626953
      ],
      "min": [
        0.0,
        0.0
      ],
      "type": "VEC2"
    },
    {
      "bufferView": 0,
      "byteOffset": 60048,
      "componentType": 5125,
      "count": 1662,
      "type": "SCALAR"
    },
    {
      "bufferView": 2,
      "byteOffset": 188808,
      "componentType": 5126,
      "count": 75,
      "max": [
        0.14849089086055756,
        7.207326957470173e-10,
        -0.05704197660088539
      ],
      "min": [
        -0.3419981300830841,
        -0.002182982861995697,
        -0.26600319147109985
      ],
      "type": "VEC3"
    },
    {
      "bufferView": 2,
      "byteOffset": 189708,
      "componentType": 5126,
      "count": 75,
      "max": [
        0.6985253095626831,
        0.7208328247070313,
        0.6999004483222961
      ],
      "min": [
        -0.6985178589820862,
        0.7083037495613098,
        -0.7052547335624695
      ],
      "type": "VEC3"
    },
    {
      "bufferView": 1,
      "byteOffset": 62936,
      "componentType": 5126,
      "count": 75,
      "max": [
        0.29923707246780396,
        0.19657421112060547
      ],
      "min": [
        0.005658090114593506,
        0.009279489517211914
      ],
      "type": "VEC2"
    },
    {
      "bufferView": 0,
      "byteOffset": 66696,
      "componentType": 5125,
      "count": 201,
      "type": "SCALAR"
    },
    {
      "bufferView": 2,
      "byteOffset": 190608,
      "componentType": 5126,
      "count": 377,
      "max": [
        0.37883397936820984,
        -0.003467770293354988,
        0.268141508102417
      ],
      "min": [
        -0.37883490324020386,
        -0.01720333844423294,
        0.08911246061325073
      ],
      "type": "VEC3"
    },
    {
      "bufferView": 2,
      "byteOffset": 195132,
      "componentType": 5126,
      "count": 377,
      "max": [
        1.0,
        1.0,
        1.0
      ],
      "min": [
        -1.0,
        -1.0,
        -1.0
      ],
      "type": "VEC3"
    },
    {
      "bufferView": 1,
      "byteOffset": 63536,
      "componentType": 5126,
      "count": 377,
      "max": [
        0.7776248455047607,
        0.6895207762718201
      ],
      "min": [
        0.2809905707836151,
        0.313232958316803
      ],
      "type": "VEC2"
    },
    {
      "bufferView": 0,
      "byteOffset": 67500,
      "componentType": 5125,
      "count": 933,
      "type": "SCALAR"
    },
    {
      "bufferView": 2,
      "byteOffset": 199656,
      "componentType": 5126,
      "count": 148,
      "max": [
        0.3764018714427948,
        -0.0061129191890358925,
        0.2550477385520935
      ],
      "min": [
        -0.3783855140209198,
        -0.011105249635875225,
        0.09204086661338806
      ],
      "type": "VEC3"
    },
    {
      "bufferView": 2,
      "byteOffset": 201432,
      "componentType": 5126,
      "count": 148,
      "max": [
        1.0,
        1.0,
        1.0
      ],
      "min": [
        -1.0,
        -1.0,
        -1.0
      ],
      "type": "VEC3"
    },
    {
      "bufferView": 1,
      "byteOffset": 66552,
      "componentType": 5126,
      "count": 148,
      "max": [
        0.7742980718612671,
        0.6885338425636292
      ],
      "min": [
        0.14809119701385498,
        0.36301127076148987
      ],
      "type": "VEC2"
    },
    {
      "bufferView": 0,
      "byteOffset": 71232,
      "componentType": 5125,
      "count": 294,
      "type": "SCALAR"
    },
    {
      "bufferView": 2,
      "byteOffset": 203208,
      "componentType": 5126,
      "count": 42,
      "max": [
        0.3770579397678375,
        -0.011652959510684013,
        0.2315100133419037
      ],
      "min": [
        -0.3779415786266327,
        -0.016869353130459785,
        0.17150740325450897
      ],
      "type": "VEC3"
    },
    {
      "bufferView": 2,
      "byteOffset": 203712,
      "componentType": 5126,
      "count": 42,
      "max": [
        1.0,
        1.0,
        1.0
      ],
      "min": [
        -1.0,
        -1.0,
        -1.0
      ],
      "type": "VEC3"
    },
    {
      "bufferView": 1,
      "byteOffset": 67736,
      "componentType": 5126,
      "count": 42,
      "max": [
        0.7624581456184387,
        0.5247170925140381
      ],
      "min": [
        0.42145323753356934,
        0.34452009201049805
      ],
      "type": "VEC2"
    },
    {
      "bufferView": 0,
      "byteOffset": 72408,
      "componentType": 5125,
      "count": 66,
      "type": "SCALAR"
    },
    {
      "bufferView": 2,
      "byteOffset": 204216,
      "componentType": 5126,
      "count": 255,
      "max": [
        0.38005754351615906,
        0.033595964312553406,
        0.025771964341402054
      ],
      "min": [
        -0.38005754351615906,
        -0.01988719031214714,
        -0.5496867299079895
      ],
      "type": "VEC3"
    },
    {
      "bufferView": 2,
      "byteOffset": 207276,
      "componentType": 5126,
      "count": 255,
      "max": [
        1.0,
        0.9999253749847412,
        0.9999253749847412
      ],
      "min": [
        -1.0,
        -0.9999254941940308,
        -0.9999253749847412
      ],
      "type": "VEC3"
    },
    {
      "bufferView": 1,
      "byteOffset": 68072,
      "componentType": 5126,
      "count": 255,
      "max": [
        0.920719563961029,
        0.8654183745384216
      ],
      "min": [
        0.0,
        0.0
      ],
      "type": "VEC2"
    },
    {
      "bufferView": 0,
      "byteOffset": 72672,
      "componentType": 5125,
      "count": 864,
      "type": "SCALAR"
    },
    {
      "bufferView": 2,
      "byteOffset": 210336,
      "componentType": 5126,
      "count": 86,
      "max": [
        0.3768469989299774,
        0.01432480476796627,
        -0.03328259289264679
      ],
      "min": [
        -0.3768469989299774,
        0.006050875410437584,
        -0.5468170642852783
      ],
      "type": "VEC3"
    },
    {
      "bufferView": 2,
      "byteOffset": 211368,
      "componentType": 5126,
      "count": 86,
      "max": [
        1.0,
        0.012228542938828468,
        0.999925434589386
      ],
      "min": [
        -1.0,
        -0.999925434589386,
        -0.999925434589386
      ],
      "type": "VEC3"
    },
    {
      "bufferView": 1,
      "byteOffset": 70112,
      "componentType": 5126,
      "count": 86,
      "max": [
        0.4320421814918518,
        0.6751567721366882
      ],
      "min": [
        0.1479770690202713,
        0.0
      ],
      "type": "VEC2"
    },
    {
      "bufferView": 0,
      "byteOffset": 76128,
      "componentType": 5125,
      "count": 216,
      "type": "SCALAR"
    },
    {
      "bufferView": 2,
      "byteOffset": 212400,
      "componentType": 5126,
      "count": 4,
      "max": [
        0.36434701085090637,
        0.01400417648255825,
        -0.05954940989613533
      ],
      "min": [
        -0.36434701085090637,
        0.0083867022767663,
        -0.5193191766738892
      ],
      "type": "VEC3"
    },
    {
      "bufferView": 2,
      "byteOffset": 212448,
      "componentType": 5126,
      "count": 4,
      "max": [
        0.0,
        -0.9999253749847412,
        0.012217102572321892
      ],
      "min": [
        0.0,
        -0.9999253749847412,
        0.012217102572321892
      ],
      "type": "VEC3"
    },
    {
      "bufferView": 1,
      "byteOffset": 70800,
      "componentType": 5126,
      "count": 4,
      "max": [
        0.41879695653915405,
        0.3861081600189209
      ],
      "min": [
        0.29923632740974426,
        0.19662943482398987
      ],
      "type": "VEC2"
    },
    {
      "bufferView": 0,
      "byteOffset": 76992,
      "componentType": 5125,
      "count": 6,
      "type": "SCALAR"
    },
    {
      "bufferView": 2,
      "byteOffset": 212496,
      "componentType": 5126,
      "count": 16,
      "max": [
        0.10849999636411667,
        0.00631260871887207,
        -0.525370717048645
      ],
      "min": [
        -0.10849999636411667,
        0.006164427846670151,
        -0.5374987721443176
      ],
      "type": "VEC3"
    },
    {
      "bufferView": 2,
      "byteOffset": 212688,
      "componentType": 5126,
      "count": 16,
      "max": [
        5.786191525913864e-10,
        -0.9999253749847412,
        0.01221710816025734
      ],
      "min": [
        -8.787225391770903e-10,
        -0.999925434589386,
        0.012217077426612377
      ],
      "type": "VEC3"
    },
    {
      "bufferView": 1,
      "byteOffset": 70832,
      "componentType": 5126,
      "count": 16,
      "max": [
        0.42962536215782166,
        0.12620240449905396
      ],
      "min": [
        0.4264715313911438,
        0.0697769820690155
      ],
      "type": "VEC2"
    },
    {
      "bufferView": 0,
      "byteOffset": 77016,
      "componentType": 5125,
      "count": 42,
      "type": "SCALAR"
    }
  ],
  "asset": {
    "extras": {
      "author": "GeniusPilot2016 (https://sketchfab.com/GeniusPilot2016)",
      "license": "CC-BY-4.0 (http://creativecommons.org/licenses/by/4.0/)",
      "source": "https://sketchfab.com/3d-models/laptop-3487cc0341934da8aa8c294e8b006a23",
      "title": "Laptop"
    },
    "generator": "Sketchfab-15.18.0",
    "version": "2.0"
  },
  "bufferViews": [
    {
      "buffer": 0,
      "byteLength": 77184,
      "name": "floatBufferViews",
      "target": 34963
    },
    {
      "buffer": 0,
      "byteLength": 70960,
      "byteOffset": 77184,
      "byteStride": 8,
      "name": "floatBufferViews",
      "target": 34962
    },
    {
      "buffer": 0,
      "byteLength": 212880,
      "byteOffset": 148144,
      "byteStride": 12,
      "name": "floatBufferViews",
      "target": 34962
    }
  ],
  "buffers": [
    {
      "byteLength": 361024,
      "uri": "scene.bin"
    }
  ],
  "materials": [
    {
      "doubleSided": true,
      "name": "keys",
      "pbrMetallicRoughness": {
        "baseColorFactor": [
          0.0176419,
          0.0176419,
          0.017642,
          1.0
        ],
        "metallicFactor": 0.0
      }
    },
    {
      "doubleSided": true,
      "name": "case",
      "pbrMetallicRoughness": {
        "baseColorFactor": [
          0.527115,
          0.527115,
          0.527115,
          1.0
        ],
        "roughnessFactor": 0.5
      }
    },
    {
      "doubleSided": true,
      "name": "shiny_part",
      "pbrMetallicRoughness": {
        "baseColorFactor": [
          0.8,
          0.8,
          0.8,
          1.0
        ],
        "roughnessFactor": 0.0
      }
    },
    {
      "doubleSided": true,
      "name": "ports1",
      "pbrMetallicRoughness": {
        "baseColorFactor": [
          0.0,
          0.0,
          0.0,
          1.0
        ],
        "metallicFactor": 0.0,
        "roughnessFactor": 0.5
      }
    },
    {
      "doubleSided": true,
      "name": "ports_2",
      "pbrMetallicRoughness": {
        "baseColorFactor": [
          0.204783,
          0.204783,
          0.204783,
          1.0
        ],
        "metallicFactor": 0.0,
        "roughnessFactor": 0.5
      }
    },
    {
      "doubleSided": true,
      "name": "ports_3",
      "pbrMetallicRoughness": {
        "baseColorFactor": [
          0.0433915,
          0.0433915,
          0.0433915,
          1.0
        ],
        "metallicFactor": 0.0,
        "roughnessFactor": 0.5
      }
    },
    {
      "doubleSided": true,
      "name": "bezel",
      "pbrMetallicRoughness": {
        "baseColorFactor": [
          0.0176419,
          0.0176419,
          0.017642,
          1.0
        ],
        "metallicFactor": 0.0,
        "roughnessFactor": 0.5
      }
    },
    {
      "doubleSided": true,
      "name": "display",
      "pbrMetallicRoughness": {
        "baseColorFactor": [
          0.0,
          0.0,
          0.0,
          1.0
        ],
        "metallicFactor": 0.0,
        "roughnessFactor": 0.25
      }
    },
    {
      "doubleSided": true,
      "name": "webcam",
      "pbrMetallicRoughness": {
        "baseColorFactor": [
          0.0,
          0.0,
          0.0,
          1.0
        ],
        "metallicFactor": 0.0,
        "roughnessFactor": 0.0
      }
    }
  ],
  "meshes": [
    {
      "name": "Object_0",
      "primitives": [
        {
          "attributes": {
            "NORMAL": 1,
            "POSITION": 0,
            "TEXCOORD_0": 2
          },
          "indices": 3,
          "material": 0,
          "mode": 4
        }
      ]
    },
    {
      "name": "Object_1",
      "primitives": [
        {
          "attributes": {
            "NORMAL": 5,
            "POSITION": 4,
            "TEXCOORD_0": 6
          },
          "indices": 7,
          "material": 1,
          "mode": 4
        }
      ]
    },
    {
      "name": "Object_2",
      "primitives": [
        {
          "attributes": {
            "NORMAL": 9,
            "POSITION": 8,
            "TEXCOORD_0": 10
          },
          "indices": 11,
          "material": 2,
          "mode": 4
        }
      ]
    },
    {
      "name": "Object_3",
      "primitives": [
        {
          "attributes": {
            "NORMAL": 13,
            "POSITION": 12,
            "TEXCOORD_0": 14
          },
          "indices": 15,
          "material": 3,
          "mode": 4
        }
      ]
    },
    {
      "name": "Object_4",
      "primitives": [
        {
          "attributes": {
            "NORMAL": 17,
            "POSITION": 16,
            "TEXCOORD_0": 18
          },
          "indices": 19,
          "material": 4,
          "mode": 4
        }
      ]
    },
    {
      "name": "Object_5",
      "primitives": [
        {
          "attributes": {
            "NORMAL": 21,
            "POSITION": 20,
            "TEXCOORD_0": 22
          },
          "indices": 23,
          "material": 5,
          "mode": 4
        }
      ]
    },
    {
      "name": "Object_6",
      "primitives": [
        {
          "attributes": {
            "NORMAL": 25,
            "POSITION": 24,
            "TEXCOORD_0": 26
          },
          "indices": 27,
          "material": 1,
          "mode": 4
        }
      ]
    },
    {
      "name": "Object_7",
      "primitives": [
        {
          "attributes": {
            "NORMAL": 29,
            "POSITION": 28,
            "TEXCOORD_0": 30
          },
          "indices": 31,
          "material": 6,
          "mode": 4
        }
      ]
    },
    {
      "name": "Object_8",
      "primitives": [
        {
          "attributes": {
            "NORMAL": 33,
            "POSITION": 32,
            "TEXCOORD_0": 34
          },
          "indices": 35,
          "material": 7,
          "mode": 4
        }
      ]
    },
    {
      "name": "Object_9",
      "primitives": [
        {
          "attributes": {
            "NORMAL": 37,
            "POSITION": 36,
            "TEXCOORD_0": 38
          },
          "indices": 39,
          "material": 8,
          "mode": 4
        }
      ]
    }
  ],
  "nodes": [
    {
      "children": [
        1
      ],
      "matrix": [
        1.0,
        -1.6081226229577292e-16,
        -3.5707495248565405e-32,
        0.0,
        0.0,
        2.220446049250313e-16,
        -1.0,
        0.0,
        1.6081226229577292e-16,
        1.0,
        2.220446049250313e-16,
        0.0,
        0.0,
        0.0,
        0.0,
        1.0
      ],
      "name": "Sketchfab_model"
    },
    {
      "children": [
        2
      ],
      "name": "root"
    },
    {
      "children": [
        3,
        5,
        11
      ],
      "matrix": [
        1.0,
        0.0,
        0.0,
        0.0,
        0.0,
        2.220446049250313e-16,
        1.0,
        0.0,
        0.0,
        -1.0,
        2.220446049250313e-16,
        0.0,
        0.0,
        0.0,
        0.0,
        1.0
      ],
      "name": "GLTF_SceneRootNode"
    },
    {
      "children": [
        4
      ],
      "matrix": [
        -0.15100349485874004,
        9.27477045508398e-11,
        2.28004651782241e-08,
        0.0,
        -9.274775031297588e-11,
        0.15099857213905166,
        -0.0012284839442946072,
        0.0,
        -2.280047642807654e-08,
        -0.0012284839442946072,
        -0.15099857213904994,
        0.0,
        0.19268733263015747,
        0.03734093904495239,
        0.12091421335935593,
        1.0
      ],
      "name": "keys_2"
    },
    {
      "mesh": 0,
      "name": "Object_4"
    },
    {
      "children": [
        6,
        7,
        8,
        9,
        10
      ],
      "matrix": [
        1.0,
        0.0,
        -0.0,
        0.0,
        -0.0,
        0.999942171001043,
        -0.010754285365425269,
        0.0,
        0.0,
        0.010754285365425269,
        0.999942171001043,
        0.0,
        0.0,
        0.034381672739982605,
        -0.08401862531900406,
        1.0
      ],
      "name": "case_3"
    },
    {
      "mesh": 1,
      "name": "Object_6"
    },
    {
      "mesh": 2,
      "name": "Object_7"
    },
    {
      "mesh": 3,
      "name": "Object_8"
    },
    {
      "mesh": 4,
      "name": "Object_9"
    },
    {
      "mesh": 5,
      "name": "Object_10"
    },
    {
      "children": [
        12,
        13,
        14,
        15
      ],
      "matrix": [
        1.0,
        0.0,
        0.0,
        0.0,
        0.0,
        -0.17364811788497914,
        0.9848077635533772,
        0.0,
        0.0,
        -0.9848077635533772,
        -0.17364811788497914,
        0.0,
        0.0,
        0.024929305538535118,
        0.177517831325531,
        1.0
      ],
      "name": "lid_4"
    },
    {
      "mesh": 6,
      "name": "Object_12"
    },
    {
      "mesh": 7,
      "name": "Object_13"
    },
    {
      "mesh": 8,
      "name": "Object_14"
    },
    {
      "mesh": 9,
      "name": "Object_15"
    }
  ],
  "scene": 0,
  "scenes": [
    {
      "name": "Sketchfab_Scene",
      "nodes": [
        0
      ]
    }
  ]
}
